<?xml version="1.0" encoding="UTF-8"?>
<svg version="1.1" xmlns="http://www.w3.org/2000/svg" width="512" height="512">
<path d="M0 0 C0.99079965 -0.00706559 1.98159929 -0.01413118 3.00242317 -0.02141088 C4.09889832 -0.0189958 5.19537348 -0.01658071 6.32507515 -0.01409245 C8.06299833 -0.02194746 8.06299833 -0.02194746 9.83603108 -0.02996117 C13.0618752 -0.04240892 16.28758485 -0.04580361 19.51344848 -0.04536426 C22.988662 -0.04700849 26.46383545 -0.06006757 29.93902779 -0.07155704 C37.54224062 -0.09443658 45.1454256 -0.10233076 52.74866819 -0.10738349 C57.4935946 -0.11063697 62.23851287 -0.11715731 66.98343468 -0.12438488 C80.11354182 -0.14395437 93.24364137 -0.16035663 106.37376404 -0.16326141 C107.6348517 -0.16354277 107.6348517 -0.16354277 108.92141587 -0.16382981 C110.62586792 -0.16419606 112.33031997 -0.16455976 114.03477202 -0.16492092 C114.88089707 -0.16510373 115.72702211 -0.16528654 116.59878731 -0.16547489 C117.44594166 -0.16565544 118.29309601 -0.16583599 119.1659217 -0.16602201 C132.89806484 -0.16956492 146.63005127 -0.19659299 160.36214004 -0.23397278 C174.45122571 -0.27201833 188.54023356 -0.29141861 202.62937176 -0.29172093 C210.54376366 -0.29230633 218.45796864 -0.30085169 226.37231255 -0.32971859 C233.11061125 -0.35418242 239.84865487 -0.36154944 246.58698593 -0.34647106 C250.02658463 -0.33928148 253.46567916 -0.34024619 256.90522194 -0.36288166 C260.6307433 -0.38316372 264.35494391 -0.37289392 268.08044624 -0.35466862 C269.17245995 -0.36786858 270.26447366 -0.38106855 271.3895787 -0.39466852 C278.69722196 -0.31257881 278.69722196 -0.31257881 281.90039444 2.58734703 C282.37207991 3.46934304 282.84376537 4.35133905 283.32974434 5.26006222 C284.02898018 6.37485958 284.72821602 7.48965694 285.44864082 8.63823605 C286.20324431 9.91223691 286.95378961 11.18864785 287.70083809 12.46709347 C288.30714813 13.49343143 288.30714813 13.49343143 288.92570686 14.5405035 C290.2098689 16.71572939 291.48878082 18.89398313 292.76724434 21.07256222 C293.62168293 22.52395734 294.47649732 23.97513131 295.33169746 25.42607784 C295.74646339 26.13046993 296.16122932 26.83486202 296.58856392 27.56059933 C297.40704756 28.94582176 298.22899901 30.32900159 299.05456734 31.71001339 C300.69348441 34.45391513 302.28703608 37.1765058 303.742342 40.02373409 C305.70438782 43.78968722 305.70438782 43.78968722 309.21817207 45.91850948 C311.46623561 46.20307125 313.56628839 46.22106573 315.82974434 46.13506222 C325.63382023 46.06733112 325.63382023 46.06733112 329.32974434 48.26006222 C331.30812543 51.3718032 331.58995701 53.85137971 331.62027168 57.50005245 C331.63303139 58.54471172 331.64579109 59.58937099 331.65893745 60.66568661 C331.66227592 62.35015644 331.66227592 62.35015644 331.66568184 64.06865597 C331.67233864 65.22752819 331.67899544 66.38640041 331.68585396 67.58038998 C331.69597681 70.03064544 331.70067109 72.48092845 331.70034981 74.9312048 C331.7047238 78.67995736 331.74105176 82.42753351 331.77896309 86.17607784 C331.78483109 88.55693319 331.78880059 90.93779413 331.79068184 93.31865597 C331.80505287 94.43961163 331.8194239 95.56056728 331.83423042 96.71549129 C331.80818246 101.151085 331.71291411 104.42573687 329.84781075 108.48686886 C326.13586724 111.10077672 323.0007242 110.81084057 318.57974434 110.57256222 C317.7869709 110.55000362 316.99419746 110.52744503 316.17740059 110.50420284 C314.22736814 110.44546693 312.27831122 110.35578876 310.32974434 110.26006222 C310.20153046 111.4051878 310.20153046 111.4051878 310.07072639 112.57344723 C309.26325651 119.78267189 308.45423757 126.99172027 307.64349651 134.20057774 C307.22678367 137.90634639 306.81066122 141.61217933 306.39590645 145.31816769 C305.9953105 148.8974424 305.59313964 152.47653702 305.18989563 156.05551434 C305.03664666 157.41812427 304.88395659 158.78079719 304.73184586 160.14353466 C304.51801186 162.05835894 304.30197108 163.97293638 304.08584785 165.88750362 C303.96371422 166.97560329 303.84158058 168.06370296 303.71574593 169.18477535 C303.33388388 172.22708234 302.85536219 175.23957092 302.32974434 178.26006222 C303.14958809 178.21365597 303.96943184 178.16724972 304.81411934 178.11943722 C305.89177559 178.08334347 306.96943184 178.04724972 308.07974434 178.01006222 C309.14708809 177.96365597 310.21443184 177.91724972 311.31411934 177.86943722 C315.09377687 178.35903016 315.99624083 179.30518972 318.32974434 182.26006222 C320.13714628 192.34238851 317.52792014 204.0605235 316.34195137 214.18974972 C316.1278396 216.06523449 315.91435627 217.9407911 315.70144844 219.81641293 C315.12555301 224.87240871 314.54042954 229.92729565 313.95316744 234.98198223 C313.33835659 240.28420213 312.73085837 245.58726083 312.12219429 250.89018917 C311.10014545 259.78411564 310.0719471 268.67731529 309.04019356 277.57012081 C307.84770838 287.84906997 306.6656399 298.12917778 305.48894417 308.40994549 C304.35487212 318.31574455 303.21289596 328.2206176 302.06750298 338.12511349 C301.58080681 342.33521658 301.09699211 346.54563604 300.61551476 350.75633907 C300.04896941 355.70819895 299.47554786 360.65921498 298.89679146 365.60966206 C298.68554976 367.42625437 298.47670067 369.24312673 298.27041435 371.06028843 C297.98858797 373.53938874 297.69813167 376.01732991 297.40545845 378.49516964 C297.28579568 379.57477868 297.28579568 379.57477868 297.16371548 380.67619801 C296.60827172 385.27361608 295.69950837 389.16218441 293.15396309 393.06084347 C288.86350346 395.88133834 282.29162931 394.39662786 277.32974434 394.26006222 C277.21179008 395.53508602 277.09383583 396.81010983 276.97230721 398.12377071 C275.79140293 410.77291533 274.47693291 423.4018094 273.05240059 436.02568722 C272.94765356 436.95502827 272.84290653 437.88436932 272.73498535 438.84187222 C272.18286621 443.7349703 271.62802737 448.62775181 271.07119942 453.52031612 C270.61491294 457.53437401 270.16436717 461.54901527 269.71866035 465.56426144 C269.17388011 470.47186223 268.61952637 475.37829283 268.05831909 480.2840414 C267.84812737 482.13509039 267.64120773 483.98651422 267.43776321 485.83831692 C267.15320789 488.42176883 266.85631158 491.0035317 266.55655098 493.58525753 C266.43718178 494.70750477 266.43718178 494.70750477 266.31540108 495.85242367 C265.68049458 501.16260861 264.57189222 506.37481565 262.32974434 511.26006222 C259.42943009 512.71021934 256.90368004 512.39612141 253.66229439 512.40723324 C252.9692039 512.41090993 252.27611341 512.41458661 251.56202018 512.41837472 C249.22823985 512.42943082 246.894504 512.43325861 244.56070137 512.43706417 C242.89203944 512.44332728 241.22337891 512.44997394 239.55471992 512.45697689 C235.01339716 512.47439871 230.47208493 512.48494148 225.93073702 512.49318242 C223.09542373 512.49832919 220.26011374 512.50440501 217.42480278 512.51069355 C208.55933117 512.52974738 199.69386791 512.54397912 190.82837975 512.55230552 C180.58399058 512.56208511 170.33981707 512.58842259 160.09550393 512.62880641 C152.18378739 512.65892831 144.27213281 512.67377058 136.36036003 512.67708653 C131.63175643 512.67944117 126.90338318 512.68845528 122.17484093 512.71354771 C117.72772577 512.73676545 113.28099366 512.74108723 108.83383369 512.73078632 C107.20036612 512.73028934 105.56688009 512.73665747 103.93346977 512.75034237 C101.70557055 512.76796579 99.47906035 512.76100401 97.25116158 512.74780941 C95.3801311 512.75139194 95.3801311 512.75139194 93.47130203 512.75504684 C90.32974434 512.26006222 90.32974434 512.26006222 87.89715576 510.41707802 C86.32974434 508.26006222 86.32974434 508.26006222 86.32974434 505.26006222 C81.37974434 505.26006222 76.42974434 505.26006222 71.32974434 505.26006222 C70.99974434 506.91006222 70.66974434 508.56006222 70.32974434 510.26006222 C67.02869828 512.46075959 66.01035709 512.51561654 62.17154121 512.53472042 C61.12035103 512.54425243 60.06916084 512.55378445 58.98611641 512.56360531 C57.85170113 512.5626939 56.71728584 512.56178249 55.54849434 512.56084347 C54.38346382 512.56512859 53.2184333 512.56941372 52.01809883 512.5738287 C49.55346515 512.57957494 47.0888145 512.58007011 44.62417793 512.57573605 C40.84475108 512.57257477 37.06610568 512.59603728 33.28677559 512.62139034 C30.8948495 512.62366308 28.50292129 512.62436695 26.11099434 512.62334347 C24.40937141 512.63715809 24.40937141 512.63715809 22.67337227 512.65125179 C21.09658699 512.64190861 21.09658699 512.64190861 19.48794746 512.63237667 C18.09920418 512.63332081 18.09920418 512.63332081 16.68240547 512.63428402 C14.32974434 512.26006222 14.32974434 512.26006222 12.63235664 511.17429256 C8.89468015 505.68165768 8.71761377 498.40209167 8.00113106 491.98198605 C7.88379616 490.97301769 7.76646126 489.96404934 7.64557076 488.92450619 C7.26114986 485.60599835 6.88515328 482.28659658 6.50943184 478.96709347 C6.24369602 476.65492333 5.97750487 474.34280548 5.71087837 472.03073788 C5.15428496 467.193603 4.60157188 462.35604647 4.05191231 457.51811886 C3.34687363 451.31330973 2.63469216 445.10934769 1.91993713 438.90565109 C1.37068265 434.13530123 0.82392179 429.36466843 0.27805138 424.59393024 C0.01617164 422.30569876 -0.24618857 420.01752222 -0.50903511 417.72940159 C-0.87518067 414.53651476 -1.23827663 411.34329642 -1.60043144 408.1499548 C-1.70949821 407.20285641 -1.81856499 406.25575802 -1.93093681 405.27995968 C-2.02901634 404.40950512 -2.12709587 403.53905056 -2.22814751 402.64221859 C-2.314042 401.88806573 -2.39993649 401.13391287 -2.48843384 400.35690689 C-2.66407651 398.33132272 -2.67025566 396.2932473 -2.67025566 394.26006222 C-3.63447441 394.30646847 -4.59869316 394.35287472 -5.59213066 394.40068722 C-6.85541191 394.43678097 -8.11869316 394.47287472 -9.42025566 394.51006222 C-10.67322441 394.55646847 -11.92619316 394.60287472 -13.21713066 394.65068722 C-16.67025566 394.26006222 -16.67025566 394.26006222 -18.79493523 392.75261593 C-21.34900815 389.35790864 -21.66743304 386.09500737 -22.12850761 381.98857784 C-22.24333898 381.08779758 -22.35817034 380.18701733 -22.47648144 379.2589407 C-22.89378737 375.92809037 -23.28190297 372.5944106 -23.67025566 369.26006222 C-23.83413778 367.89392119 -23.99873907 366.52786629 -24.16396523 365.16188717 C-25.48335373 354.2531789 -26.7544321 343.33910927 -28.01301932 332.4232378 C-28.34095374 329.58014979 -28.66962584 326.73714798 -28.99852753 323.89417171 C-30.14928354 313.94617842 -31.2967738 303.99781407 -32.4414959 294.04912472 C-33.50373356 284.81817113 -34.57370902 275.5881358 -35.64711779 266.35847521 C-36.57386902 258.38654309 -37.49489921 250.41396297 -38.41160756 242.44086981 C-38.95690838 237.69908867 -39.50450538 232.95760149 -40.05803299 228.21677303 C-40.57760242 223.76530152 -41.09000284 219.31306045 -41.59710693 214.86015224 C-41.78319978 213.23661442 -41.97176492 211.61335755 -42.16312218 209.99043179 C-45.19903284 184.20265466 -45.19903284 184.20265466 -41.83612156 179.92945766 C-38.91836525 177.68052383 -37.05608204 177.85198281 -33.42025566 178.01006222 C-32.34259941 178.04615597 -31.26494316 178.08224972 -30.15463066 178.11943722 C-29.33478691 178.16584347 -28.51494316 178.21224972 -27.67025566 178.26006222 C-27.74098289 177.68837811 -27.81171013 177.11669399 -27.88458061 176.52768612 C-28.6330635 170.47494447 -29.37911356 164.4219062 -30.12386894 158.3687048 C-30.40061262 156.12188601 -30.67793799 153.87513878 -30.95590019 151.62847042 C-32.65998118 137.85125246 -34.27915245 124.07261832 -35.67025566 110.26006222 C-36.93579277 110.30799923 -38.20132988 110.35593624 -39.5052166 110.40532589 C-40.63679192 110.44694347 -40.63679192 110.44694347 -41.79122734 110.48940182 C-43.36113639 110.55072287 -44.93049328 110.62659329 -46.49935722 110.71050167 C-47.17965996 110.72298946 -47.85996269 110.73547726 -48.56088066 110.74834347 C-49.59777031 110.78761959 -49.59777031 110.78761959 -50.65560722 110.82768917 C-52.67025566 110.26006222 -52.67025566 110.26006222 -54.898283 108.47588253 C-57.6155792 103.54446541 -57.20222071 98.85887918 -57.13119316 93.31865597 C-57.13027672 92.15882702 -57.12936028 90.99899807 -57.12841606 89.80402279 C-57.12238126 87.35548967 -57.10663908 84.90696389 -57.08187675 82.45854855 C-57.04535598 78.70786545 -57.04085759 74.95817023 -57.04134941 71.20732784 C-57.0315186 68.827762 -57.01986177 66.44820286 -57.00619316 64.06865597 C-57.00396751 62.94567608 -57.00174187 61.82269619 -56.99944878 60.66568661 C-56.98668907 59.62102734 -56.97392937 58.57636806 -56.960783 57.50005245 C-56.95315941 56.58247662 -56.94553581 55.66490078 -56.9376812 54.71951962 C-56.6523941 52.09579316 -56.08073662 50.47896133 -54.67025566 48.26006222 C-50.89656575 45.94470302 -48.2071378 46.4236581 -43.94808769 47.00249386 C-39.78995386 47.37926285 -36.42401917 47.21351814 -32.67025566 45.26006222 C-26.83856317 39.08033169 -23.21104342 31.04634514 -19.38070488 23.54131222 C-16.92436741 18.82918324 -14.16581453 14.33077993 -11.35775566 9.82256222 C-10.90738945 9.07885372 -10.45702324 8.33514523 -9.99300957 7.56890011 C-5.40174502 0.01225683 -5.40174502 0.01225683 0 0 Z " fill="#010101" transform="translate(118.67025566101074,-0.26006221771240234)"/>
<path d="M0 0 C103.62 0 207.24 0 314 0 C313.36314348 7.64227829 312.69658569 15.26080743 311.87890625 22.8828125 C311.72167336 24.35329544 311.72167336 24.35329544 311.56126404 25.85348511 C311.34106689 27.9055047 311.12003605 29.957435 310.89819336 32.00927734 C310.56258294 35.12423017 310.23340744 38.23982337 309.90429688 41.35546875 C309.68789667 43.3646261 309.47111282 45.37374217 309.25390625 47.3828125 C309.15799698 48.29974884 309.06208771 49.21668518 308.96327209 50.16140747 C308.30189648 56.18860546 307.28489879 62.07470438 306 68 C305.1455555 68.0154612 305.1455555 68.0154612 304.27384949 68.03123474 C298.35294092 68.13929277 292.43218475 68.25389145 286.51147461 68.37231445 C284.30089502 68.41566552 282.09028191 68.45734046 279.87963867 68.49731445 C276.70481251 68.55501266 273.53015514 68.61870862 270.35546875 68.68359375 C269.36475876 68.70030624 268.37404877 68.71701874 267.35331726 68.73423767 C266.43258926 68.75418289 265.51186127 68.77412811 264.56323242 68.79467773 C263.7527092 68.81022202 262.94218597 68.8257663 262.10710144 68.84178162 C259.80853317 68.92809721 259.80853317 68.92809721 257 70 C256.91868537 71.43655854 256.86066441 72.8744483 256.8125 74.3125 C256.76029297 75.51326172 256.76029297 75.51326172 256.70703125 76.73828125 C256.82290122 79.01640575 256.82290122 79.01640575 258.14131165 80.61433411 C260.78896878 82.58818205 262.7492835 82.39907995 266.03198242 82.43237305 C267.27304245 82.45216721 268.51410248 82.47196136 269.79277039 82.49235535 C271.14700163 82.49912509 272.50123453 82.50557196 273.85546875 82.51171875 C275.24125261 82.52856405 276.62702118 82.54671409 278.01277161 82.56611633 C281.65741192 82.61363938 285.30199023 82.64343344 288.94683838 82.66955566 C292.66715746 82.69934983 296.38726284 82.745884 300.10742188 82.79101562 C307.40484194 82.87707478 314.7022775 82.94440803 322 83 C320.68674773 97.09509722 319.27988483 111.17677033 317.75 125.25 C317.64461914 126.22300049 317.53923828 127.19600098 317.43066406 128.19848633 C315.64147734 144.67148072 313.66659006 161.11777154 311.61886597 177.56039429 C309.48692978 194.69874212 307.54484262 211.85190808 305.73632812 229.02734375 C304.32111615 242.38063304 302.6664988 255.66800958 301 269 C205.96 269 110.92 269 13 269 C6.65683962 216.14033019 6.65683962 216.14033019 3.98828125 190.9921875 C2.96339746 181.50344582 1.80042557 172.0335848 0.625 162.5625 C-1.47616164 145.6175675 -3.42199299 128.65718499 -5.3125 111.6875 C-5.44750916 110.4823172 -5.58251831 109.2771344 -5.72161865 108.03543091 C-6.10470372 104.61113563 -6.4845904 101.18650246 -6.86328125 97.76171875 C-6.97864731 96.73136505 -7.09401337 95.70101135 -7.21287537 94.63943481 C-7.31705276 93.68938568 -7.42123016 92.73933655 -7.52856445 91.76049805 C-7.62007278 90.93374069 -7.71158112 90.10698334 -7.80586243 89.25517273 C-7.98478026 87.17679807 -8 85.08606155 -8 83 C-6.7452547 82.99761165 -5.4905094 82.99522329 -4.19774151 82.99276257 C25.56798801 82.93543863 55.33363642 82.86273378 85.09927796 82.77101372 C88.76060228 82.75974516 92.42192699 82.74860677 96.08325195 82.73754883 C97.17663656 82.7342433 97.17663656 82.7342433 98.29210975 82.730871 C110.10441577 82.69547061 121.91672172 82.67062198 133.72906116 82.64965298 C145.84398116 82.62791272 157.95883214 82.59487929 170.07369345 82.55129844 C177.55298877 82.524751 185.03219805 82.50707846 192.51153817 82.50065396 C198.24067046 82.49479072 203.9696595 82.47323738 209.69872475 82.44572449 C212.05339703 82.43689912 214.40809489 82.4332309 216.76278305 82.43499184 C219.96743616 82.43663235 223.17148261 82.42005003 226.37605286 82.39872742 C227.31670572 82.40357499 228.25735858 82.40842257 229.22651607 82.41341704 C230.08243773 82.4039605 230.9383594 82.39450396 231.82021809 82.38476086 C232.93033047 82.38191295 232.93033047 82.38191295 234.06286937 82.37900752 C236.58972927 81.88461706 237.46809759 81.04416607 239 79 C239.66666667 75.5 239.66666667 75.5 239 72 C234.68330044 68.26461734 230.22715492 68.5709566 224.81889343 68.60127258 C223.428161 68.59130234 223.428161 68.59130234 222.00933295 68.58113068 C218.90153693 68.56247309 215.79412496 68.56510787 212.6862793 68.56762695 C210.45896357 68.5586115 208.23165282 68.54828482 206.00434875 68.53674316 C199.95523794 68.50912176 193.90622114 68.49988163 187.85705543 68.49388909 C181.53624212 68.48451884 175.21549941 68.45831654 168.89472961 68.43388367 C158.28488947 68.39514555 147.67507267 68.36680806 137.06518555 68.34643555 C126.13774906 68.32542481 115.21035779 68.29814891 104.28295898 68.26245117 C103.6092116 68.26025235 102.93546422 68.25805352 102.24130025 68.25578807 C98.86125297 68.24471839 95.48120612 68.23352559 92.10115945 68.22227156 C64.06747931 68.12909138 36.03377389 68.05771275 8 68 C7.51574439 64.95866439 7.03255491 61.91716575 6.54997253 58.87556458 C6.41358604 58.01970276 6.27719954 57.16384095 6.13668013 56.28204393 C5.17029083 50.18374765 4.31257033 44.08432246 3.61328125 37.94921875 C3.50654587 37.03590286 3.39981049 36.12258698 3.2898407 35.18159485 C3.07047719 33.29616943 2.85299276 31.41052437 2.63745117 29.5246582 C2.30751961 26.64401611 1.96953887 23.76439103 1.63085938 20.88476562 C1.41619571 19.03130448 1.20198559 17.17779075 0.98828125 15.32421875 C0.88832352 14.47421799 0.78836578 13.62421722 0.68537903 12.74845886 C0.59495834 11.94934586 0.50453766 11.15023285 0.41137695 10.3269043 C0.3316011 9.63364548 0.25182526 8.94038666 0.16963196 8.22612 C-0.03875377 5.49142514 0 2.74262294 0 0 Z " fill="#FE8F16" transform="translate(99,110)"/>
<path d="M0 0 C81.84 0 163.68 0 248 0 C246.77121893 15.35976342 245.47531045 30.59672231 243.625 45.875 C243.32985578 48.34683286 243.03606495 50.81882357 242.74254417 53.29084969 C242.53483699 55.03849348 242.32667573 56.78608343 242.11788368 58.53359795 C241.01827552 67.76774294 239.96511947 77.00709117 238.91162109 86.24658203 C238.72537979 87.87834427 238.53911591 89.51010393 238.35282898 91.14186096 C237.90162614 95.09454437 237.45072723 99.04726233 237 103 C235.7763656 103.00219984 235.7763656 103.00219984 234.52801132 103.00444412 C214.68996133 103.0414762 194.85208268 103.10044299 175.0141716 103.18390274 C165.42074041 103.2237327 155.82739171 103.25610505 146.23388672 103.27099609 C137.87336134 103.28399215 129.51301718 103.31090426 121.15259385 103.35461307 C116.72469963 103.3772741 112.29702932 103.39290791 107.86907196 103.39188385 C103.70259337 103.39113996 99.53661059 103.40898072 95.37026024 103.44116783 C93.84003395 103.44969699 92.30975224 103.45139636 90.77951241 103.44580269 C88.69151645 103.43918598 86.60510888 103.45702339 84.51727295 103.48101807 C82.76402269 103.48654882 82.76402269 103.48654882 80.97535324 103.49219131 C77.36140787 104.10898962 76.20742046 105.12589626 74 108 C73.505 109.485 73.505 109.485 73 111 C68.05 111 63.1 111 58 111 C57.34 109.35 56.68 107.7 56 106 C53.61556332 103.61556332 53.07540218 103.73816495 49.82568359 103.68115234 C48.96494232 103.66128265 48.10420105 103.64141296 47.21737671 103.62094116 C46.28712677 103.60938995 45.35687683 103.59783875 44.3984375 103.5859375 C43.44683746 103.56657135 42.49523743 103.5472052 41.51480103 103.5272522 C38.46829253 103.46735868 35.42174646 103.42103205 32.375 103.375 C30.3124833 103.33682921 28.2499827 103.29777802 26.1875 103.2578125 C21.12513034 103.16164914 16.06268605 103.07765437 11 103 C10.9359346 102.40644211 10.8718692 101.81288422 10.80586243 101.20133972 C9.97740425 93.52977046 9.14564723 85.85856135 8.3125 78.1875 C8.17849792 76.95292053 8.04449585 75.71834106 7.90643311 74.4463501 C5.85825455 55.5999888 3.73110074 36.76464216 1.47387695 17.94213867 C1.37362717 17.09726395 1.27337738 16.25238922 1.17008972 15.38191223 C0.98557129 13.8269179 0.79876503 12.27219238 0.60908508 10.71781921 C0.18021549 7.08895347 0 3.67116229 0 0 Z " fill="#DFDFDF" transform="translate(132,394)"/>
<path d="M0 0 C2.62273767 -0.00853766 5.24545892 -0.02664086 7.86807251 -0.05354309 C14.22821001 -0.10105221 20.58190037 -0.03224982 26.94107067 0.07686026 C34.35171132 0.19947684 41.7610698 0.20426633 49.17255456 0.20445972 C62.39489237 0.20869955 75.61427736 0.31742803 88.83544922 0.48632812 C101.65613774 0.65000686 114.47464164 0.74189551 127.29638672 0.75292969 C128.08710671 0.75362098 128.87782671 0.75431226 129.69250792 0.7550245 C130.8765715 0.75603779 130.8765715 0.75603779 132.08455557 0.75707155 C133.67402298 0.75845823 135.26349037 0.75987784 136.85295773 0.7613306 C137.63688595 0.76204219 138.42081417 0.76275378 139.2284978 0.76348693 C151.46462087 0.77763862 163.70041063 0.85851507 175.93619801 0.94566642 C180.36586952 0.97631565 184.79545448 0.99680752 189.22521126 1.00985105 C196.90441934 1.03262112 204.58126313 1.10088595 212.25960159 1.21995735 C214.80961864 1.25266143 217.35988214 1.27015725 219.91010857 1.27145004 C223.38852573 1.27598661 226.86169277 1.33573844 230.33921814 1.41004944 C231.35175673 1.3988405 232.36429532 1.38763156 233.4075169 1.37608296 C240.09652601 1.60158243 240.09652601 1.60158243 243.03935349 4.61907852 C244.58033919 6.90186769 245.8732333 9.18186393 247.10961914 11.64038086 C248.03750244 13.13794922 248.03750244 13.13794922 248.98413086 14.66577148 C249.49733887 15.53395508 250.01054687 16.40213867 250.53930664 17.29663086 C251.39008789 18.73522461 251.39008789 18.73522461 252.25805664 20.20288086 C252.82782227 21.17225586 253.39758789 22.14163086 253.98461914 23.14038086 C254.57758789 24.14069336 255.17055664 25.14100586 255.78149414 26.17163086 C260.10961914 33.51149261 260.10961914 33.51149261 260.10961914 34.64038086 C258.85487384 34.64276921 257.60012854 34.64515757 256.30736065 34.64761829 C226.54163113 34.70494223 196.77598273 34.77764708 167.01034118 34.86936714 C163.34901686 34.8806357 159.68769215 34.89177409 156.02636719 34.90283203 C154.93298258 34.90613756 154.93298258 34.90613756 153.81750939 34.90950986 C142.00520337 34.94491025 130.19289742 34.96975888 118.38055798 34.99072788 C106.26563798 35.01246814 94.150787 35.04550157 82.03592569 35.08908242 C74.55663037 35.11562986 67.07742109 35.1333024 59.59808097 35.1397269 C53.86894868 35.14559014 48.13995964 35.16714348 42.41089439 35.19465637 C40.05622211 35.20348174 37.70152425 35.20714996 35.34683609 35.20538902 C32.14218298 35.20374851 28.93813653 35.22033083 25.73356628 35.24165344 C24.79291342 35.23680587 23.85226056 35.23195829 22.88310307 35.22696382 C21.59922057 35.24114863 21.59922057 35.24114863 20.28940105 35.25562 C19.17928867 35.25846791 19.17928867 35.25846791 18.04674977 35.26137334 C15.51979347 35.75578266 14.63580924 36.59123193 13.10961914 38.64038086 C12.51824078 43.25653532 12.51824078 43.25653532 14.34546596 47.33508331 C16.61037339 49.0108891 17.90732934 49.01866656 20.71107006 49.02514172 C21.66104341 49.03459826 22.61101675 49.0440548 23.58977717 49.0537979 C24.63548564 49.04895032 25.6811941 49.04410275 26.7585907 49.03910828 C27.86779666 49.0457551 28.97700263 49.05240193 30.11982089 49.05925018 C33.85568866 49.07797895 37.59123893 49.0752682 41.32714844 49.07275391 C43.9975217 49.08176504 46.66786592 49.09195881 49.33822632 49.1036377 C55.0971251 49.12645693 60.85596327 49.13831451 66.6149044 49.14276695 C74.94139106 49.14922024 83.26776798 49.17214307 91.59421048 49.19911025 C105.10266787 49.24241225 118.61112065 49.27235948 132.11962891 49.29394531 C145.24334989 49.31494479 158.36703312 49.34221085 171.49072266 49.37792969 C172.7037541 49.38122793 172.7037541 49.38122793 173.94129124 49.38459279 C177.99816293 49.39566219 182.05503427 49.40685505 186.11190546 49.4181093 C219.77778008 49.51134271 253.44366623 49.58209675 287.10961914 49.64038086 C287.10961914 60.53038086 287.10961914 71.42038086 287.10961914 82.64038086 C168.96961914 82.64038086 50.82961914 82.64038086 -70.89038086 82.64038086 C-70.89038086 71.75038086 -70.89038086 60.86038086 -70.89038086 49.64038086 C-66.37737305 49.57979492 -61.86436523 49.51920898 -57.21459961 49.45678711 C-53.61828044 49.40582654 -50.02197795 49.35390726 -46.42568207 49.3013382 C-42.62821797 49.24609208 -38.8307472 49.19253915 -35.03320312 49.14306641 C-31.37622688 49.09535991 -27.71934386 49.04301487 -24.06247902 48.98744011 C-22.66664766 48.96704503 -21.27079076 48.94832725 -19.87491417 48.93130684 C-17.92126984 48.90720009 -15.96770889 48.8766004 -14.01416016 48.84570312 C-12.90163376 48.83015884 -11.78910736 48.81461456 -10.64286804 48.79859924 C-7.800128 48.75544341 -7.800128 48.75544341 -4.89038086 47.64038086 C-4.89038086 44.01038086 -4.89038086 40.38038086 -4.89038086 36.64038086 C-8.62458683 35.39564554 -12.16403324 35.40828301 -16.05834961 35.32397461 C-17.25056877 35.29280296 -17.25056877 35.29280296 -18.46687317 35.26100159 C-21.00378849 35.19565999 -23.54080658 35.13669278 -26.07788086 35.07788086 C-27.79859458 35.03468099 -29.51929793 34.99106623 -31.23999023 34.94702148 C-35.45668199 34.83999438 -39.67347706 34.73868362 -43.89038086 34.64038086 C-43.58970595 34.05145949 -43.28903104 33.46253812 -42.97924477 32.85577065 C-40.65862023 28.2682918 -38.47391682 23.67848962 -36.46855831 18.94414425 C-28.11787042 0.74602937 -18.9736128 -0.52077928 0 0 Z " fill="#484848" transform="translate(147.890380859375,12.359619140625)"/>
<path d="M0 0 C103.62 0 207.24 0 314 0 C313.36314348 7.64227829 312.69658569 15.26080743 311.87890625 22.8828125 C311.72167336 24.35329544 311.72167336 24.35329544 311.56126404 25.85348511 C311.34106689 27.9055047 311.12003605 29.957435 310.89819336 32.00927734 C310.56258294 35.12423017 310.23340744 38.23982337 309.90429688 41.35546875 C309.68789667 43.3646261 309.47111282 45.37374217 309.25390625 47.3828125 C309.15799698 48.29974884 309.06208771 49.21668518 308.96327209 50.16140747 C308.30189648 56.18860546 307.28489879 62.07470438 306 68 C305.1455555 68.0154612 305.1455555 68.0154612 304.27384949 68.03123474 C298.35294092 68.13929277 292.43218475 68.25389145 286.51147461 68.37231445 C284.30089502 68.41566552 282.09028191 68.45734046 279.87963867 68.49731445 C276.70481251 68.55501266 273.53015514 68.61870862 270.35546875 68.68359375 C269.36475876 68.70030624 268.37404877 68.71701874 267.35331726 68.73423767 C266.43258926 68.75418289 265.51186127 68.77412811 264.56323242 68.79467773 C263.7527092 68.81022202 262.94218597 68.8257663 262.10710144 68.84178162 C259.80853317 68.92809721 259.80853317 68.92809721 257 70 C256.34 71.98 255.68 73.96 255 76 C250.05 76 245.1 76 240 76 C239.34 74.35 238.68 72.7 238 71 C235.34034544 69.16011212 233.17138928 68.74890706 229.97828293 68.73828697 C228.78546554 68.72708873 228.78546554 68.72708873 227.56855083 68.71566427 C226.70084788 68.717599 225.83314493 68.71953374 224.93914795 68.7215271 C223.54969715 68.7128385 223.54969715 68.7128385 222.13217664 68.70397437 C219.02135094 68.68693873 215.91067329 68.68409478 212.79980469 68.68115234 C210.57263829 68.67185663 208.34547539 68.6616885 206.11831665 68.65071106 C200.06503499 68.62335677 194.01177666 68.60824554 187.95844936 68.59528303 C181.63497165 68.57967624 175.31154177 68.55287823 168.98809814 68.5272522 C158.37228671 68.48574516 147.75647533 68.45116312 137.140625 68.421875 C126.2063611 68.39168947 115.27212337 68.35733919 104.33789062 68.31738281 C103.66388052 68.31492126 102.98987041 68.31245972 102.29543576 68.30992357 C98.91411794 68.29754897 95.53280043 68.28509244 92.15148306 68.27259517 C64.10102509 68.16902732 36.05053441 68.07997146 8 68 C7.51574439 64.95866439 7.03255491 61.91716575 6.54997253 58.87556458 C6.41358604 58.01970276 6.27719954 57.16384095 6.13668013 56.28204393 C5.17029083 50.18374765 4.31257033 44.08432246 3.61328125 37.94921875 C3.50654587 37.03590286 3.39981049 36.12258698 3.2898407 35.18159485 C3.07047719 33.29616943 2.85299276 31.41052437 2.63745117 29.5246582 C2.30751961 26.64401611 1.96953887 23.76439103 1.63085938 20.88476562 C1.41619571 19.03130448 1.20198559 17.17779075 0.98828125 15.32421875 C0.88832352 14.47421799 0.78836578 13.62421722 0.68537903 12.74845886 C0.59495834 11.94934586 0.50453766 11.15023285 0.41137695 10.3269043 C0.29171318 9.28701607 0.29171318 9.28701607 0.16963196 8.22612 C-0.03875377 5.49142514 0 2.74262294 0 0 Z " fill="#DFDFDF" transform="translate(99,110)"/>
<path d="M0 0 C0.99966797 0.76957031 0.99966797 0.76957031 2.01953125 1.5546875 C2.94185547 2.23144531 2.94185547 2.23144531 3.8828125 2.921875 C16.6424649 12.93721192 22.72892581 28.97100394 25.01953125 44.5546875 C26.67990555 61.00441384 22.58213952 78.33763373 12.45703125 91.6171875 C4.49096566 101.04427821 -5.41793872 110.24714475 -18.20117188 111.82958984 C-32.37771488 112.86414133 -43.60947105 110.41161066 -54.98046875 101.5546875 C-57.66796875 99.1171875 -57.66796875 99.1171875 -59.98046875 96.5546875 C-60.43808594 96.1009375 -60.89570313 95.6471875 -61.3671875 95.1796875 C-68.88449754 87.28749848 -73.53913114 76.05243922 -75.98046875 65.5546875 C-76.16222656 64.81089844 -76.34398437 64.06710937 -76.53125 63.30078125 C-79.45365856 45.43597066 -75.27267414 27.83215539 -65.16796875 12.87109375 C-57.74682991 3.04107719 -47.66575086 -5.47152616 -35.36328125 -8.125 C-22.25198197 -9.88750253 -10.78245714 -7.80999598 0 0 Z " fill="#030100" transform="translate(281.98046875,230.4453125)"/>
<path d="M0 0 C2.62273767 -0.00853766 5.24545892 -0.02664086 7.86807251 -0.05354309 C14.22821001 -0.10105221 20.58190037 -0.03224982 26.94107067 0.07686026 C34.35171132 0.19947684 41.7610698 0.20426633 49.17255456 0.20445972 C62.39489237 0.20869955 75.61427736 0.31742803 88.83544922 0.48632812 C101.65613774 0.65000686 114.47464164 0.74189551 127.29638672 0.75292969 C128.08710671 0.75362098 128.87782671 0.75431226 129.69250792 0.7550245 C130.8765715 0.75603779 130.8765715 0.75603779 132.08455557 0.75707155 C133.67402298 0.75845823 135.26349037 0.75987784 136.85295773 0.7613306 C137.63688595 0.76204219 138.42081417 0.76275378 139.2284978 0.76348693 C151.46462087 0.77763862 163.70041063 0.85851507 175.93619801 0.94566642 C180.36586952 0.97631565 184.79545448 0.99680752 189.22521126 1.00985105 C196.90441934 1.03262112 204.58126313 1.10088595 212.25960159 1.21995735 C214.80961864 1.25266143 217.35988214 1.27015725 219.91010857 1.27145004 C223.38852573 1.27598661 226.86169277 1.33573844 230.33921814 1.41004944 C231.35175673 1.3988405 232.36429532 1.38763156 233.4075169 1.37608296 C240.09652601 1.60158243 240.09652601 1.60158243 243.03935349 4.61907852 C244.58033919 6.90186769 245.8732333 9.18186393 247.10961914 11.64038086 C248.03750244 13.13794922 248.03750244 13.13794922 248.98413086 14.66577148 C249.49733887 15.53395508 250.01054687 16.40213867 250.53930664 17.29663086 C251.39008789 18.73522461 251.39008789 18.73522461 252.25805664 20.20288086 C252.82782227 21.17225586 253.39758789 22.14163086 253.98461914 23.14038086 C254.57758789 24.14069336 255.17055664 25.14100586 255.78149414 26.17163086 C260.10961914 33.51149261 260.10961914 33.51149261 260.10961914 34.64038086 C258.85487384 34.64276921 257.60012854 34.64515757 256.30736065 34.64761829 C226.54163113 34.70494223 196.77598273 34.77764708 167.01034118 34.86936714 C163.34901686 34.8806357 159.68769215 34.89177409 156.02636719 34.90283203 C154.93298258 34.90613756 154.93298258 34.90613756 153.81750939 34.90950986 C142.00520337 34.94491025 130.19289742 34.96975888 118.38055798 34.99072788 C106.26563798 35.01246814 94.150787 35.04550157 82.03592569 35.08908242 C74.55663037 35.11562986 67.07742109 35.1333024 59.59808097 35.1397269 C53.86894868 35.14559014 48.13995964 35.16714348 42.41089439 35.19465637 C40.05622211 35.20348174 37.70152425 35.20714996 35.34683609 35.20538902 C32.14218298 35.20374851 28.93813653 35.22033083 25.73356628 35.24165344 C24.79291342 35.23680587 23.85226056 35.23195829 22.88310307 35.22696382 C21.59922057 35.24114863 21.59922057 35.24114863 20.28940105 35.25562 C19.17928867 35.25846791 19.17928867 35.25846791 18.04674977 35.26137334 C15.50619411 35.75844343 14.65714184 36.58779864 13.10961914 38.64038086 C12.77961914 39.96038086 12.44961914 41.28038086 12.10961914 42.64038086 C7.15961914 42.64038086 2.20961914 42.64038086 -2.89038086 42.64038086 C-3.38538086 43.63038086 -3.38538086 43.63038086 -3.89038086 44.64038086 C-4.38538086 40.68038086 -4.38538086 40.68038086 -4.89038086 36.64038086 C-8.62458683 35.39564554 -12.16403324 35.40828301 -16.05834961 35.32397461 C-17.25056877 35.29280296 -17.25056877 35.29280296 -18.46687317 35.26100159 C-21.00378849 35.19565999 -23.54080658 35.13669278 -26.07788086 35.07788086 C-27.79859458 35.03468099 -29.51929793 34.99106623 -31.23999023 34.94702148 C-35.45668199 34.83999438 -39.67347706 34.73868362 -43.89038086 34.64038086 C-43.58970595 34.05145949 -43.28903104 33.46253812 -42.97924477 32.85577065 C-40.65862023 28.2682918 -38.47391682 23.67848962 -36.46855831 18.94414425 C-28.11787042 0.74602937 -18.9736128 -0.52077928 0 0 Z " fill="#2E2E2E" transform="translate(147.890380859375,12.359619140625)"/>
<path d="M0 0 C19.8 0 39.6 0 60 0 C58.65773011 14.09383383 57.27990774 28.17655955 55.75 42.25 C55.64461914 43.22300049 55.53923828 44.19600098 55.43066406 45.19848633 C53.64147734 61.67148072 51.66659006 78.11777154 49.61886597 94.56039429 C47.48692978 111.69874212 45.54484262 128.85190808 43.73632812 146.02734375 C42.32111615 159.38063304 40.6664988 172.66800958 39 186 C-56.04 186 -151.08 186 -249 186 C-249 185.67 -249 185.34 -249 185 C-120.795 184.505 -120.795 184.505 10 184 C20.395 93.415 20.395 93.415 31 1 C20.77 1 10.54 1 0 1 C0 0.67 0 0.34 0 0 Z " fill="#E77A0C" transform="translate(361,193)"/>
<path d="M0 0 C9.24 0 18.48 0 28 0 C26.6852542 18.76500825 24.63922245 37.38084814 22.4140625 56.0546875 C20.56228279 71.69762217 18.78860389 87.349716 17 103 C-34.48 103 -85.96 103 -139 103 C-139 102.67 -139 102.34 -139 102 C-97.09 102 -55.18 102 -12 102 C-11.67 98.37 -11.34 94.74 -11 91 C-9.98030752 79.87764 -8.90746208 68.77183076 -7.5625 57.68359375 C-7.12985026 54.11501718 -6.71771542 50.54445207 -6.3125 46.97265625 C-5.06864761 36.01443982 -3.78750009 25.06291091 -2.375 14.125 C-2.2519751 13.16255371 -2.1289502 12.20010742 -2.00219727 11.20849609 C-1.88545654 10.31727051 -1.76871582 9.42604492 -1.6484375 8.5078125 C-1.49640869 7.34209717 -1.49640869 7.34209717 -1.34130859 6.15283203 C-1.01262179 4.07961297 -0.50910951 2.03643802 0 0 Z " fill="#C5C5C5" transform="translate(352,394)"/>
<path d="M0 0 C9.57 0 19.14 0 29 0 C28.36314348 7.64227829 27.69658569 15.26080743 26.87890625 22.8828125 C26.77408432 23.86313446 26.66926239 24.84345642 26.56126404 25.85348511 C26.34106689 27.9055047 26.12003605 29.957435 25.89819336 32.00927734 C25.56258294 35.12423017 25.23340744 38.23982337 24.90429688 41.35546875 C24.68789667 43.3646261 24.47111282 45.37374217 24.25390625 47.3828125 C24.11004234 48.75821701 24.11004234 48.75821701 23.96327209 50.16140747 C23.81818459 51.48360794 23.81818459 51.48360794 23.67016602 52.83251953 C23.58879898 53.59130402 23.50743195 54.3500885 23.42359924 55.13186646 C22.78587386 59.4498193 21.85600617 63.71996917 21 68 C11.76 68 2.52 68 -7 68 C-6.4680925 57.45050125 -5.63276004 47.06974855 -4.31787109 36.59082031 C-3.65773266 31.21033712 -3.05358559 25.82317126 -2.4375 20.4375 C-2.18666212 18.24864467 -1.93538025 16.05984016 -1.68359375 13.87109375 C-1.57587646 12.93193115 -1.46815918 11.99276855 -1.35717773 11.02514648 C-0.92300689 7.34790042 -0.45927439 3.67419515 0 0 Z " fill="#C5C5C5" transform="translate(384,110)"/>
<path d="M0 0 C0.66 0.33 1.32 0.66 2 1 C1.79503906 1.58007812 1.59007812 2.16015625 1.37890625 2.7578125 C-2.29163959 13.40063919 -3.67573739 24.14178724 0 35 C0.36738281 36.11761719 0.36738281 36.11761719 0.7421875 37.2578125 C3.10556771 43.7623368 6.57027236 49.42014565 10.29296875 55.21484375 C14.06586216 61.37061721 13.65540351 67.98502174 13 75 C11.79040451 79.24993012 10.33899645 83.23783951 8 87 C4.07883255 88.30705582 2.80055207 87.57758765 -1 86 C-12.73113439 79.87215134 -18.70051564 71.14907867 -23.15234375 58.8046875 C-24.25445208 53.85789712 -24.29112087 49.17601353 -24.25 44.125 C-24.25773438 43.18269531 -24.26546875 42.24039063 -24.2734375 41.26953125 C-24.23609721 27.77101814 -20.21181722 16.7707452 -10.9375 6.73046875 C-7.70362917 3.84215267 -4.07268598 1.51792573 0 0 Z " fill="#7A3C1D" transform="translate(245,239)"/>
<path d="M0 0 C8.12379543 1.28045812 13.45390896 5.84948617 18.3125 12.3125 C26.87497972 24.94343429 29.74481821 38.8179965 27.5703125 54 C25.16410913 65.40718634 19.1900279 75.70791264 10 83 C8.515 83.495 8.515 83.495 7 84 C7.165 82.845 7.33 81.69 7.5 80.5 C9.26125107 63.52794427 7.21196011 52.04812513 -2.41796875 37.55078125 C-6.57224065 30.8526589 -8.07230714 23.82084883 -7 16 C-5.40716922 10.19866044 -3.19293663 5.09589026 0 0 Z " fill="#5E2D17" transform="translate(264,239)"/>
<path d="M0 0 C12.54 0 25.08 0 38 0 C38 10.89 38 21.78 38 33 C25.46 33 12.92 33 0 33 C0 22.11 0 11.22 0 0 Z " fill="#2F2F2F" transform="translate(397,62)"/>
<path d="M0 0 C7.33111237 5.8648899 10.44463229 15.98253414 12 25 C12.21311243 28.17400786 12.19231065 31.32086646 12.125 34.5 C12.11597656 35.32242188 12.10695313 36.14484375 12.09765625 36.9921875 C12.07436865 38.99492083 12.03850959 40.99750154 12 43 C7.80647838 41.60215946 6.62348885 38.64132707 4.5 35 C4.0985376 34.31591064 3.6970752 33.63182129 3.28344727 32.92700195 C-1.39268877 24.78877303 -4.19084987 17.54206624 -3 8 C-2.20348212 5.17556592 -1.1968632 2.6929422 0 0 Z " fill="#783B1D" transform="translate(260,247)"/>
</svg>
